# xmcd
#
# Track frame offsets: 
#        150
#        11431
#        22266
#        32358
#        44696
#        59744
#        70382
#        82521
#        93639
#        104389
#        115349
#        128862
#        136964
#        147690
#        160065
#        171334
#
# Disc length: 2350 seconds
#
# Revision: 2
# Processed by: cddbd v1.5.2PL0 Copyright (c) Steve Scherf et al.
# Submitted via: ExactAudioCopy v0.99pb5
#
DISCID=e4092c10
DTITLE=Various Artist - The Country Club Collection - Desperado
DYEAR=2005
DGENRE=Country
TTITLE0=Skeeter Davis - Gonna get along without you now
TTITLE1=Sandy Posey - I take it back
TTITLE2=Billie Jo Spears - I'm gonna be a Country Girl again
TTITLE3=Frankie Lane - High Noon
TTITLE4=Kenny Rogers - For the good Times
TTITLE5=Freddy Fender - Wild side of Life
TTITLE6=George Jones - Take me
TTITLE7=Patsy Cline - Hungry for Love
TTITLE8=Hank Locklin - Send me the Pillow thar you Dream on
TTITLE9=Don Gibson - Oh, Lonesome me
TTITLE10=Don Williams - Where do we go from Here
TTITLE11=Johnny Cash - Guess Things happen that way
TTITLE12=Johnny Paycheck - Heartbreak Tennessee
TTITLE13=Gene Autry - Goodnight Irene
TTITLE14=Willie Nelson - Touch me
TTITLE15=Glen Campbell - Galveston
EXTD=
EXTT0=
EXTT1=
EXTT2=
EXTT3=
EXTT4=
EXTT5=
EXTT6=
EXTT7=
EXTT8=
EXTT9=
EXTT10=
EXTT11=
EXTT12=
EXTT13=
EXTT14=
EXTT15=
PLAYORDER=
